<?xml version="1.0" encoding="iso-8859-1"?>
<!-- Generator: Adobe Illustrator 18.1.1, SVG Export Plug-In . SVG Version: 6.00 Build 0)  -->
<svg version="1.1" id="Capa_1" xmlns="http://www.w3.org/2000/svg" xmlns:xlink="http://www.w3.org/1999/xlink" x="0px" y="0px"
	 viewBox="0 0 365.023 365.023" style="enable-background:new 0 0 365.023 365.023;" xml:space="preserve">
<g>
	<path style="fill:#010002;" d="M182.515,0C81.871,0,0,81.877,0,182.515s81.871,182.509,182.515,182.509
		c100.631,0,182.509-81.877,182.509-182.515S283.146,0,182.515,0z M182.515,11.934c62.115,0,116.563,33.391,146.391,83.148
		c-20.389,3.819-24.727,7.65-25.001,13.038c-0.167,3.234-0.089,7.166-0.006,10.967c0.078,3.598,0.161,7.19,0.006,10.072
		c-0.143,2.804,0.573,6.003,1.337,9.386c0.537,2.381,1.498,6.635,1.271,8.425c-0.835,0.424-1.671,0.883-2.518,1.349
		c-2.226,1.229-4.535,2.494-6.086,2.494c-0.382,0-1.551,0-3.556-2.512c-5.388-6.766-10.239-18.032-11.79-21.809
		c0.829-9.243,1.444-32.436-12.751-34.465c-5.346-0.77-11.236-0.412-15.693,0.018c-2.619,0.251-5.161,0.483-6.928,0.251
		c-0.346-0.692-0.728-1.963-1.152-3.795c-0.919-3.986-3.025-6.009-6.247-6.009c-5.71,0-6.038,3.932-6.826,13.425
		c-1.122,13.39-3.646,19.106-4.958,20.777c-2.309-0.722-4.958-1.193-7.972-1.724c-5.943-1.056-12.68-2.244-18.73-5.704
		c-2.9-1.659-5.424-6.725-7.65-11.194c-3.723-7.465-7.936-15.932-17.047-15.932c-1.295,0-2.625,0.197-3.956,0.579
		c-2.822,0.812-5.585,1.223-8.216,1.223c-4.374,0-6.969-1.146-6.975-1.146l-5.209-2.619l-2.739,5.143
		c-0.304,0.567-7.303,14.046-0.191,30.049c7.047,15.884,29.948,34.906,50.038,36.589c3.228,0.268,5.549,0.632,7.202,0.996
		c-1.784,0.871-4.368,1.975-6.892,3.049c-11.958,5.084-26.833,11.403-30.914,21.606c-1.366,3.413-2.339,4.863-3.276,6.271
		c-2.518,3.777-4.046,6.558-6.092,19.828c-1.265,8.222-4.511,19.195-7.375,28.88c-5.233,17.674-7.644,26.397-5.364,31.535
		c0.101,0.268,0.012,1.498-1.122,3.127c-1.689,2.423-5.275,5.012-10.281,5.012c-5.531,0-9.81,1.51-13.246,2.721
		c-1.88,0.662-3.658,1.295-4.744,1.295c-0.34,0-1.146,0-2.798-1.933c-3.3-3.849-5.173-14.547-6.826-23.993
		c-1.516-8.64-3.079-17.578-5.997-24.136c-5.227-11.743-11.224-18.288-18.169-25.878c-1.629-1.784-3.335-3.64-5.12-5.674
		c-8.747-9.959-19.386-27.43-19.392-27.43l0,0c-1.438-2.697-14.499-26.523-29.626-32.758c-3.658-1.504-6.838-2.423-9.66-2.781
		C41.344,62.378,106.151,11.934,182.515,11.934z"/>
</g>
<g>
</g>
<g>
</g>
<g>
</g>
<g>
</g>
<g>
</g>
<g>
</g>
<g>
</g>
<g>
</g>
<g>
</g>
<g>
</g>
<g>
</g>
<g>
</g>
<g>
</g>
<g>
</g>
<g>
</g>
</svg>
